<svg width="40" height="40" viewBox="0 0 40 40" fill="none" xmlns="http://www.w3.org/2000/svg">
<g filter="url(#filter0_d_46_2828)">
<circle cx="20" cy="16" r="16" fill="white"/>
</g>
<path d="M25 15.802C25 16.3537 25.4477 16.8009 26 16.8009C26.5523 16.8009 27 16.3537 27 15.802C27 15.2503 26.5523 14.8031 26 14.8031C25.4477 14.8031 25 15.2503 25 15.802Z" fill="#695CCD"/>
<path d="M19 15.802C19 16.3537 19.4477 16.8009 20 16.8009C20.5523 16.8009 21 16.3537 21 15.802C21 15.2503 20.5523 14.8031 20 14.8031C19.4477 14.8031 19 15.2503 19 15.802Z" fill="#695CCD"/>
<path d="M13 15.802C13 16.3537 13.4477 16.8009 14 16.8009C14.5523 16.8009 15 16.3537 15 15.802C15 15.2503 14.5523 14.8031 14 14.8031C13.4477 14.8031 13 15.2503 13 15.802Z" fill="#695CCD"/>
<path d="M25 15.802C25 16.3537 25.4477 16.8009 26 16.8009C26.5523 16.8009 27 16.3537 27 15.802C27 15.2503 26.5523 14.8031 26 14.8031C25.4477 14.8031 25 15.2503 25 15.802Z" stroke="#695CCD" stroke-linecap="round" stroke-linejoin="round"/>
<path d="M19 15.802C19 16.3537 19.4477 16.8009 20 16.8009C20.5523 16.8009 21 16.3537 21 15.802C21 15.2503 20.5523 14.8031 20 14.8031C19.4477 14.8031 19 15.2503 19 15.802Z" stroke="#695CCD" stroke-linecap="round" stroke-linejoin="round"/>
<path d="M13 15.802C13 16.3537 13.4477 16.8009 14 16.8009C14.5523 16.8009 15 16.3537 15 15.802C15 15.2503 14.5523 14.8031 14 14.8031C13.4477 14.8031 13 15.2503 13 15.802Z" stroke="#695CCD" stroke-linecap="round" stroke-linejoin="round"/>
<defs>
<filter id="filter0_d_46_2828" x="0" y="0" width="40" height="40" filterUnits="userSpaceOnUse" color-interpolation-filters="sRGB">
<feFlood flood-opacity="0" result="BackgroundImageFix"/>
<feColorMatrix in="SourceAlpha" type="matrix" values="0 0 0 0 0 0 0 0 0 0 0 0 0 0 0 0 0 0 127 0" result="hardAlpha"/>
<feOffset dy="4"/>
<feGaussianBlur stdDeviation="2"/>
<feComposite in2="hardAlpha" operator="out"/>
<feColorMatrix type="matrix" values="0 0 0 0 0 0 0 0 0 0 0 0 0 0 0 0 0 0 0.25 0"/>
<feBlend mode="normal" in2="BackgroundImageFix" result="effect1_dropShadow_46_2828"/>
<feBlend mode="normal" in="SourceGraphic" in2="effect1_dropShadow_46_2828" result="shape"/>
</filter>
</defs>
</svg>
